<svg width="36" height="36" viewBox="0 0 36 36" fill="none" xmlns="http://www.w3.org/2000/svg">
<path d="M34.3125 9H33.75V5.625C33.75 2.475 26.775 0 18 0C9.225 0 2.25 2.475 2.25 5.625V9H1.6875C0.755859 9 0 9.75516 0 10.6875V16.3125C0 17.2441 0.755859 18 1.6875 18H2.25V29.25C2.25 30.4924 3.25758 31.5 4.5 31.5V33.75C4.5 34.9924 5.50758 36 6.75 36H9C10.2424 36 11.25 34.9924 11.25 33.75V31.5H24.75V33.75C24.75 34.9924 25.7576 36 27 36H29.25C30.4924 36 31.5 34.9924 31.5 33.75V31.5H31.95C33.075 31.5 33.75 30.6 33.75 29.7V18H34.3125C35.2441 18 36 17.2441 36 16.3125V10.6875C36 9.75516 35.2441 9 34.3125 9ZM11.25 5.0625C11.25 4.75172 11.5017 4.5 11.8125 4.5H24.1875C24.4983 4.5 24.75 4.75172 24.75 5.0625V6.1875C24.75 6.49828 24.4983 6.75 24.1875 6.75H11.8125C11.5017 6.75 11.25 6.49828 11.25 6.1875V5.0625ZM7.875 28.125C6.63258 28.125 5.625 27.1174 5.625 25.875C5.625 24.6326 6.63258 23.625 7.875 23.625C9.11742 23.625 10.125 24.6326 10.125 25.875C10.125 27.1174 9.11742 28.125 7.875 28.125ZM16.875 20.25H9C7.75758 20.25 6.75 19.2424 6.75 18V11.25C6.75 10.0076 7.75758 9 9 9H16.875V20.25ZM19.125 20.25V9H27C28.2424 9 29.25 10.0076 29.25 11.25V18C29.25 19.2424 28.2424 20.25 27 20.25H19.125ZM28.125 28.125C26.8826 28.125 25.875 27.1174 25.875 25.875C25.875 24.6326 26.8826 23.625 28.125 23.625C29.3674 23.625 30.375 24.6326 30.375 25.875C30.375 27.1174 29.3674 28.125 28.125 28.125Z" fill="#616161"/>
</svg>
