<svg width="36" height="36" viewBox="0 0 36 36" fill="none" xmlns="http://www.w3.org/2000/svg">
<g clip-path="url(#clip0_37:3489)">
<path d="M35.1555 12.375H30.9459L29.7759 9.45C28.5736 6.44273 25.7041 4.5 22.4648 4.5H13.5351C10.2966 4.5 7.42639 6.44273 6.22335 9.45L5.05335 12.375H0.844442C0.295301 12.375 -0.10759 12.8911 0.026004 13.4234L0.447879 15.1109C0.541395 15.4863 0.878895 15.75 1.26632 15.75H2.67749C1.73319 16.5748 1.12499 17.7736 1.12499 19.125V22.5C1.12499 23.6334 1.55811 24.6565 2.24999 25.4482V29.25C2.24999 30.4924 3.25757 31.5 4.49999 31.5H6.74999C7.99241 31.5 8.99999 30.4924 8.99999 29.25V27H27V29.25C27 30.4924 28.0076 31.5 29.25 31.5H31.5C32.7424 31.5 33.75 30.4924 33.75 29.25V25.4482C34.4419 24.6572 34.875 23.6341 34.875 22.5V19.125C34.875 17.7736 34.2668 16.5748 33.3232 15.75H34.7344C35.1218 15.75 35.4593 15.4863 35.5528 15.1109L35.9747 13.4234C36.1076 12.8911 35.7047 12.375 35.1555 12.375ZM10.4013 11.1213C10.9139 9.84023 12.1549 9 13.5351 9H22.4648C23.8451 9 25.0861 9.84023 25.5987 11.1213L27 14.625H8.99999L10.4013 11.1213ZM6.74999 22.4859C5.39999 22.4859 4.49999 21.5887 4.49999 20.243C4.49999 18.8972 5.39999 18 6.74999 18C8.09999 18 10.125 20.0187 10.125 21.3645C10.125 22.7102 8.09999 22.4859 6.74999 22.4859ZM29.25 22.4859C27.9 22.4859 25.875 22.7102 25.875 21.3645C25.875 20.0187 27.9 18 29.25 18C30.6 18 31.5 18.8972 31.5 20.243C31.5 21.5887 30.6 22.4859 29.25 22.4859Z" fill="#616161"/>
</g>
<defs>
<clipPath id="clip0_37:3489">
<rect width="36" height="36" fill="white"/>
</clipPath>
</defs>
</svg>
