<svg width="14" height="14" viewBox="0 0 14 14" fill="none" xmlns="http://www.w3.org/2000/svg">
<path d="M4.47606 9.01264V9.01275L4.47305 9.00952L2.10995 11.2765C2.10995 11.2784 2.10995 11.2784 2.10995 11.2784C1.78921 11.5991 1.88951 12.2205 2.33444 12.6654C2.64805 12.9791 3.04784 13.1173 3.36968 13.0616C3.37104 13.0613 3.37246 13.0612 3.37383 13.061C3.41518 13.0536 3.4545 13.0425 3.49291 13.0285C3.5003 13.0258 3.50743 13.0227 3.51482 13.0198C3.55072 13.0052 3.58531 12.989 3.61768 12.9683C3.6214 12.9658 3.62463 12.9627 3.62835 12.9603C3.6605 12.9386 3.69337 12.9179 3.72137 12.89C3.72137 12.89 3.72137 12.89 3.72339 12.89L5.92221 10.599L4.51338 9.05374L4.47606 9.01264Z" fill="#1FB588"/>
<path d="M13.7454 4.24914C13.5128 4.08678 13.1941 4.12888 12.9937 4.32937L12.8417 4.48145L12.644 4.67117L12.6419 4.6733C12.6414 4.67158 12.6409 4.66985 12.6409 4.66805L11.3582 5.9529C11.1658 6.14324 10.857 6.17335 10.6446 6.00502C10.3921 5.80453 10.3781 5.43572 10.5986 5.21528L12.3203 3.49156C12.3904 3.39137 12.4265 3.27505 12.4265 3.15682C12.4265 2.99852 12.3623 2.8381 12.2341 2.72391C12.0015 2.51339 11.6388 2.53551 11.4183 2.75596L9.79075 4.38548C9.59839 4.57593 9.2897 4.60603 9.07724 4.4376C8.82464 4.23722 8.81064 3.86841 9.03111 3.64785L10.6707 2.00627C10.8712 1.80587 10.9132 1.48715 10.7509 1.25462C10.5384 0.94594 10.1075 0.917968 9.85689 1.17046L7.99889 3.02855C7.99282 3.03251 7.99088 3.03656 7.9868 3.04255C7.97677 3.05056 7.96887 3.05857 7.95883 3.06655C7.45169 3.5737 7.19717 4.24318 7.19717 4.91258C7.19717 5.19928 7.24524 5.48787 7.33941 5.76248C7.41559 5.98498 7.36153 6.23148 7.19512 6.39789L6.88452 6.69731L6.86336 6.71727L6.86358 6.71749L6.86035 6.72058L8.34558 8.07357L8.60212 7.80495C8.76651 7.63864 9.01301 7.58245 9.23348 7.6586C9.28369 7.67591 9.33559 7.68565 9.38655 7.69973C9.41505 7.70774 9.44348 7.71586 9.4723 7.72281C9.66543 7.76937 9.86184 7.79373 10.0597 7.79598C10.0698 7.79609 10.0799 7.79713 10.09 7.79713H10.0901C10.1041 7.79713 10.1177 7.79543 10.1317 7.79521C10.3565 7.79157 10.5796 7.75956 10.7976 7.69866C10.8266 7.69043 10.8555 7.68242 10.8841 7.67323C10.9511 7.65207 11.0172 7.62891 11.0826 7.60208C11.0945 7.5973 11.1059 7.59142 11.1176 7.58628C11.2604 7.5253 11.3981 7.45093 11.5302 7.36335C11.5342 7.36067 11.5383 7.35834 11.5422 7.35566C11.6108 7.30961 11.6771 7.25985 11.7421 7.20653C11.7483 7.20142 11.7544 7.19576 11.7605 7.19051C11.8188 7.14178 11.8788 7.09587 11.9335 7.04118C11.9415 7.03314 11.9494 7.02311 11.9574 7.0151C11.9635 7.00913 11.9674 7.00708 11.9715 7.00112L13.8296 5.14506C14.0821 4.89259 14.054 4.4616 13.7454 4.24914Z" fill="#1FB588"/>
<path d="M5.23191 6.32209C5.19611 6.28619 5.16729 6.24624 5.14216 6.20522C5.53534 5.24819 5.25334 3.99582 4.34868 3.09113C3.20503 1.94761 1.31287 1.98554 0.54905 2.74944C-0.214879 3.51337 -0.252886 5.40553 0.890737 6.54915C1.79543 7.45373 3.0478 7.73573 4.00483 7.34256C4.04585 7.36766 4.08579 7.3965 4.12159 7.4323L9.09771 12.8934L9.0991 12.8921C9.15794 12.9509 9.22953 12.9908 9.30587 13.0214C9.31184 13.0239 9.31785 13.0264 9.32403 13.0287C9.36259 13.0429 9.40201 13.0539 9.44366 13.0614C9.44451 13.0615 9.44535 13.0616 9.44623 13.0617C9.76432 13.1171 10.1596 12.981 10.4701 12.6706C10.9103 12.2304 11.0099 11.6149 10.693 11.2981L5.23191 6.32209Z" fill="#1FB588"/>
</svg>
