<svg width="100" height="16" viewBox="0 0 100 16" fill="none" xmlns="http://www.w3.org/2000/svg">
<path d="M1.94232 0C1.36961 0 0.975878 0.107383 0.761113 0.340046C0.546347 0.572708 0.438965 1.00224 0.438965 1.64653V3.29306C0.438965 3.84787 0.546347 4.24161 0.761113 4.47427C0.975878 4.70693 1.36961 4.81432 1.94232 4.81432H5.37856V14.5861C5.39646 15.0694 5.52174 15.4094 5.7544 15.6421C5.98706 15.8747 6.3808 15.9821 6.93561 15.9642H8.8327C9.38751 15.9463 9.78125 15.8389 9.99601 15.6242C10.2287 15.4094 10.3361 15.0694 10.3182 14.5861V4.81432H13.4681C14.0229 4.81432 14.4166 4.70693 14.6493 4.47427C14.864 4.24161 14.9714 3.84787 14.9714 3.29306V1.50336C14.9714 0.966443 14.864 0.572708 14.6493 0.340046C14.4166 0.107383 14.0229 0 13.4681 0H1.94232Z" fill="#FEFEFE"/>
<path d="M21.9085 9.64653V6.33557C21.9085 5.5123 22.0517 4.97539 22.3201 4.67114C22.5886 4.38479 23.1255 4.24161 23.8951 4.24161H24.9868C25.7564 4.24161 26.2754 4.38479 26.5438 4.67114C26.8302 4.97539 26.9555 5.5123 26.9555 6.33557V9.64653C26.9555 10.4519 26.8302 10.9888 26.5438 11.2752C26.2754 11.5794 25.7564 11.7226 24.9868 11.7226H23.8951C23.1255 11.7226 22.5886 11.5794 22.3201 11.2752C22.0517 10.9888 21.9085 10.4519 21.9085 9.64653ZM23.6624 15.9463H25.2194C27.4924 15.9284 29.1568 15.481 30.1769 14.6398C31.1971 13.7808 31.7161 12.2237 31.7161 9.93289V6.08501C31.7161 3.77629 31.1971 2.20134 30.1769 1.32439C29.1568 0.447428 27.4924 0 25.2194 0H23.6624C21.3716 0 19.725 0.447428 18.687 1.32439C17.6669 2.20134 17.1658 3.77629 17.1658 6.08501V9.93289C17.1658 12.2237 17.6669 13.7808 18.687 14.6398C19.725 15.481 21.3716 15.9284 23.6624 15.9463Z" fill="#FEFEFE"/>
<path d="M43.6644 9.07382C43.6644 9.87919 43.5391 10.4161 43.2885 10.7025C43.038 10.9709 42.5905 11.132 41.9462 11.1678H40.3713C39.727 11.132 39.2796 10.9709 39.029 10.7025C38.7606 10.4161 38.6353 9.87919 38.6353 9.07382V1.52125C38.6532 0.966443 38.5458 0.590604 38.3131 0.375839C38.0805 0.143176 37.7046 0.0357941 37.1498 0.0178972H35.5749C34.9306 0.0178972 34.501 0.125279 34.2684 0.357941C34.0178 0.572707 33.8925 0.966443 33.8925 1.52125V9.93289C33.8925 12.0984 34.4116 13.6555 35.4317 14.5682C36.4697 15.481 38.1342 15.9463 40.3892 15.9463H41.9283C44.1834 15.9463 45.8299 15.481 46.8679 14.5682C47.906 13.6555 48.425 12.0984 48.425 9.93289V1.52125C48.4071 0.966443 48.2818 0.572707 48.0491 0.357941C47.8165 0.125279 47.3691 0.0178972 46.7248 0.0178972H45.1498C44.6129 0.0357941 44.2192 0.143176 43.9865 0.375839C43.7717 0.590604 43.6644 0.966443 43.6644 1.52125V9.07382Z" fill="#FEFEFE"/>
<path d="M55.6842 10.8993H57.8319L60.0869 14.5503C60.4269 15.0515 60.7133 15.4094 60.946 15.6421C61.1965 15.8747 61.5903 15.9821 62.1272 15.9642H63.6305C64.1853 15.9463 64.5612 15.8389 64.7938 15.6242C65.0265 15.4094 65.1339 15.0694 65.116 14.5861C65.116 14.1924 64.9728 13.7987 64.7044 13.4228L62.6283 10.0761C62.9683 9.91499 63.2547 9.71812 63.5052 9.50336C64.5791 8.57271 65.116 7.21253 65.116 5.45861C65.116 3.6868 64.5791 2.34452 63.5052 1.41387C62.4314 0.483222 60.6059 0.0178972 58.0108 0.0178972H52.3912C51.7648 0.0178972 51.2994 0.178972 51.0131 0.465325C50.7267 0.769576 50.5835 1.1991 50.5835 1.77181V14.5861C50.5835 15.0694 50.7088 15.4094 50.9594 15.6421C51.192 15.8747 51.5858 15.9821 52.1406 15.9642H53.8408C54.3956 15.9463 54.7715 15.8389 55.0041 15.6242C55.2368 15.4094 55.3442 15.0694 55.3263 14.5861V11.2394C55.3263 11.1678 55.3621 11.0783 55.4158 11.0067C55.4695 10.9351 55.5589 10.8993 55.6842 10.8993ZM60.0869 5.45861C60.0869 5.90604 59.9258 6.21029 59.6037 6.38926C59.2994 6.58613 58.7804 6.67561 58.0824 6.67561H55.6842C55.5589 6.67561 55.4695 6.62192 55.4158 6.55034C55.3621 6.47875 55.3263 6.40716 55.3263 6.31767V4.61745C55.3263 4.54586 55.3621 4.45638 55.4158 4.38479C55.4695 4.2953 55.5589 4.25951 55.6842 4.25951H58.0824C58.7804 4.25951 59.2994 4.34899 59.6037 4.51007C59.9258 4.68904 60.0869 5.01118 60.0869 5.45861Z" fill="#FEFEFE"/>
<path d="M72.1247 4.97539C72.1068 4.42058 71.9815 4.02685 71.7488 3.79418C71.5162 3.56152 71.0687 3.45414 70.4244 3.47204H68.8674C68.3126 3.48993 67.9188 3.59731 67.7041 3.81208C67.4714 4.02685 67.364 4.42058 67.3819 4.97539V14.604C67.3819 15.0872 67.5072 15.4273 67.7578 15.66C67.9904 15.8926 68.3842 16 68.9211 15.9821H70.6392C71.194 15.9642 71.5698 15.8568 71.8025 15.6421C72.0352 15.4273 72.1425 15.0872 72.1247 14.604V4.97539ZM72.1247 1.27069C72.1068 0.80537 71.9815 0.483222 71.7488 0.30425C71.5162 0.125279 71.0687 0.0357944 70.4244 0.0357944H68.8674C68.3126 0.0536913 67.9188 0.143177 67.7041 0.322148C67.4714 0.483222 67.364 0.80537 67.3819 1.27069V1.32439C67.3819 1.78971 67.5072 2.12975 67.7578 2.30873C67.9904 2.4877 68.3842 2.57718 68.9211 2.55928H70.6392C71.194 2.54139 71.5698 2.4519 71.8025 2.29083C72.0352 2.12975 72.1425 1.78971 72.1247 1.32439V1.27069Z" fill="#FEFEFE"/>
<path d="M79.2592 7.48098V7.3915C79.2592 7.15884 79.3307 6.97987 79.4739 6.89038C79.6171 6.8009 79.8498 6.7472 80.1719 6.7472H85.4337C85.9706 6.7651 86.3285 6.65772 86.5433 6.42506C86.758 6.21029 86.8654 5.81655 86.9012 5.26174V5.13647C86.9012 4.51007 86.7938 4.09843 86.5791 3.86577C86.3464 3.63311 85.9706 3.52573 85.4337 3.52573H78.1316C76.9146 3.54363 75.984 3.82998 75.3397 4.36689C74.6954 4.9038 74.3912 5.85235 74.3912 7.21253V7.74944C74.3912 9.10962 74.6954 10.0582 75.3397 10.5951C75.984 11.132 76.9146 11.4004 78.1316 11.4004H81.1026C81.4247 11.4004 81.6574 11.4541 81.8005 11.5436C81.9437 11.6331 82.0153 11.7942 82.0153 12.0268V12.1342C82.0153 12.3669 81.9437 12.528 81.8005 12.6353C81.6574 12.7248 81.4247 12.7606 81.1026 12.7606H75.8587C75.3218 12.7606 74.946 12.868 74.7312 13.0828C74.5164 13.3154 74.409 13.7092 74.3912 14.2461V14.3893C74.3733 15.0157 74.4806 15.4273 74.7133 15.66C74.9281 15.8926 75.3218 16 75.8587 16H83.1428C84.3598 15.9821 85.2905 15.6958 85.9348 15.1588C86.5791 14.6219 86.9012 13.6734 86.9012 12.3132V11.7763C86.9012 10.4161 86.5791 9.44967 85.9348 8.93065C85.2905 8.39374 84.3598 8.12528 83.1428 8.12528H80.1719C79.8498 8.12528 79.6171 8.07159 79.4739 7.9821C79.3307 7.89262 79.2592 7.71365 79.2592 7.48098Z" fill="#FEFEFE"/>
<path d="M98.0553 7.67785C98.6101 7.67785 99.0039 7.57047 99.2186 7.33781C99.4334 7.10515 99.5587 6.71141 99.5587 6.1566V4.97539C99.5587 4.42058 99.4334 4.02685 99.2186 3.79418C99.0039 3.56152 98.6101 3.45414 98.0553 3.45414H96.6235V2.52349C96.6414 2.04027 96.534 1.70022 96.3014 1.48546C96.0866 1.27069 95.6929 1.16331 95.1381 1.14541H93.4379C92.883 1.12752 92.4893 1.2349 92.2566 1.46756C92.024 1.70022 91.8987 2.04027 91.8808 2.52349V3.45414H90.6459C90.0732 3.45414 89.6795 3.56152 89.4647 3.79418C89.2499 4.02685 89.1426 4.42058 89.1426 4.97539V6.01342C89.1426 6.65772 89.2499 7.10515 89.4647 7.33781C89.6795 7.57047 90.0732 7.67785 90.6459 7.67785H91.8808V10.1477C91.8808 12.2953 92.3819 13.7808 93.42 14.6398C94.4401 15.481 95.9077 15.9284 97.8226 15.9463H98.1269C98.6101 15.9642 98.9681 15.8568 99.1828 15.6242C99.3976 15.3915 99.5229 15.0157 99.5587 14.4609V13.2796C99.5766 12.7248 99.4692 12.3311 99.2365 12.0984C99.0039 11.8479 98.628 11.7226 98.1269 11.7226H98.0553C97.5542 11.7226 97.1962 11.5794 96.9815 11.311C96.7488 11.0425 96.6235 10.613 96.6235 10.0582V7.67785H98.0553Z" fill="#FEFEFE"/>
</svg>
