<svg width="18" height="18" viewBox="0 0 18 18" fill="none" xmlns="http://www.w3.org/2000/svg">
<path d="M14.8748 3.88715L14.8744 3.88676C14.495 3.51483 14.0476 3.21926 13.5567 3.01613L13.556 3.01586C13.0467 2.8043 12.5005 2.69601 11.949 2.69728L11.9479 2.69728C11.1727 2.69728 10.4174 2.90949 9.76137 3.30967L9.76136 3.30968C9.60441 3.40542 9.45567 3.51034 9.31497 3.62447L9 3.87994L8.68503 3.62447C8.54433 3.51034 8.3956 3.40542 8.23864 3.30968L8.23863 3.30967C7.58265 2.90949 6.8273 2.69728 6.05215 2.69728C5.49308 2.69728 4.95365 2.80414 4.44395 3.01586L4.44341 3.01609C3.95061 3.22011 3.50697 3.51324 3.12545 3.88691L3.12476 3.88758C2.7462 4.25694 2.44379 4.697 2.23467 5.18281L14.8748 3.88715ZM14.8748 3.88715C15.253 4.2571 15.5555 4.69723 15.7654 5.18293C15.9829 5.68841 16.0936 6.2236 16.092 6.77496V6.77638C16.092 7.29327 15.9865 7.84275 15.7681 8.4136L15.7677 8.41473C15.5868 8.89116 15.3196 9.39537 14.9725 9.91353C14.4232 10.7324 13.6587 11.5996 12.695 12.4893C11.0934 13.9668 9.50776 14.9874 9.44911 15.025L9.44902 15.025L9.03339 15.2916C9.03332 15.2916 9.03326 15.2917 9.03319 15.2917C9.01274 15.3047 8.98551 15.3047 8.96505 15.2917C8.96499 15.2917 8.96492 15.2916 8.96486 15.2916L8.54923 15.025L8.54927 15.025L8.54135 15.0201C8.54189 15.0204 8.53539 15.0164 8.51951 15.0061C8.50491 14.9967 8.48451 14.9835 8.45867 14.9665C8.40702 14.9325 8.33418 14.8841 8.24316 14.8221C8.06109 14.6981 7.80681 14.5206 7.50412 14.2977C6.89797 13.8515 6.10159 13.2266 5.30328 12.4893L5.30323 12.4893M14.8748 3.88715L5.30323 12.4893M5.30323 12.4893C4.33951 11.5996 3.57508 10.7324 3.02576 9.91353M5.30323 12.4893L3.02576 9.91353M3.02576 9.91353C2.67928 9.39633 2.41326 8.89168 2.2301 8.4136L3.02576 9.91353ZM1.90625 6.77638C1.90625 6.22403 2.01712 5.68835 2.23465 5.18285L2.23 8.41335C2.01176 7.84259 1.90625 7.2932 1.90625 6.77638Z" fill="#FEFEFE" stroke="#1FB588"/>
</svg>
