<svg width="30" height="30" viewBox="0 0 30 30" fill="none" xmlns="http://www.w3.org/2000/svg">
<path d="M23.75 21.25H6.25C4.87125 21.25 3.75 22.3713 3.75 23.75C3.75 25.1287 4.87125 26.25 6.25 26.25H23.75C25.1287 26.25 26.25 25.1287 26.25 23.75C26.25 22.3713 25.1287 21.25 23.75 21.25ZM23.75 12.5H6.25C4.87125 12.5 3.75 13.6213 3.75 15C3.75 16.3787 4.87125 17.5 6.25 17.5H23.75C25.1287 17.5 26.25 16.3787 26.25 15C26.25 13.6213 25.1287 12.5 23.75 12.5ZM23.75 3.75H6.25C4.87125 3.75 3.75 4.87125 3.75 6.25C3.75 7.62875 4.87125 8.75 6.25 8.75H23.75C25.1287 8.75 26.25 7.62875 26.25 6.25C26.25 4.87125 25.1287 3.75 23.75 3.75Z" fill="#616161"/>
</svg>
