<svg width="36" height="36" viewBox="0 0 36 36" fill="none" xmlns="http://www.w3.org/2000/svg">
<path d="M10.5 3.78947C9.50544 3.78947 8.55161 4.18872 7.84835 4.89938C7.14509 5.61005 6.75 6.57392 6.75 7.57895V17.1246L29.25 17.0811V7.57895C29.25 6.57392 28.8549 5.61005 28.1516 4.89938C27.4484 4.18872 26.4946 3.78947 25.5 3.78947H10.5ZM24.8756 32.2105L23.625 30.3158H12.375L11.1244 32.2105H10.5C8.51088 32.2105 6.60322 31.412 5.1967 29.9907C3.79018 28.5694 3 26.6416 3 24.6316V7.57895C3 5.56888 3.79018 3.64115 5.1967 2.21982C6.60322 0.798494 8.51088 0 10.5 0H25.5C27.4891 0 29.3968 0.798494 30.8033 2.21982C32.2098 3.64115 33 5.56888 33 7.57895V24.6316C33 26.6416 32.2098 28.5694 30.8033 29.9907C29.3968 31.412 27.4891 32.2105 25.5 32.2105H24.8756ZM10.5 26.5263C10.9973 26.5263 11.4742 26.3267 11.8258 25.9714C12.1775 25.616 12.375 25.1341 12.375 24.6316C12.375 24.1291 12.1775 23.6471 11.8258 23.2918C11.4742 22.9365 10.9973 22.7368 10.5 22.7368C10.0027 22.7368 9.52581 22.9365 9.17418 23.2918C8.82254 23.6471 8.625 24.1291 8.625 24.6316C8.625 25.1341 8.82254 25.616 9.17418 25.9714C9.52581 26.3267 10.0027 26.5263 10.5 26.5263ZM25.5 26.5263C25.9973 26.5263 26.4742 26.3267 26.8258 25.9714C27.1775 25.616 27.375 25.1341 27.375 24.6316C27.375 24.1291 27.1775 23.6471 26.8258 23.2918C26.4742 22.9365 25.9973 22.7368 25.5 22.7368C25.0027 22.7368 24.5258 22.9365 24.1742 23.2918C23.8225 23.6471 23.625 24.1291 23.625 24.6316C23.625 25.1341 23.8225 25.616 24.1742 25.9714C24.5258 26.3267 25.0027 26.5263 25.5 26.5263ZM25.5 5.68421C25.9973 5.68421 26.4742 5.88383 26.8258 6.23917C27.1775 6.5945 27.375 7.07643 27.375 7.57895V13.2632C27.375 13.7657 27.1775 14.2476 26.8258 14.6029C26.4742 14.9583 25.9973 15.1579 25.5 15.1579C25.0027 15.1579 24.5258 14.9583 24.1742 14.6029C23.8225 14.2476 23.625 13.7657 23.625 13.2632V7.57895C23.625 7.07643 23.8225 6.5945 24.1742 6.23917C24.5258 5.88383 25.0027 5.68421 25.5 5.68421ZM11.0887 32.2655L24.9094 32.2636L25.4325 33.0537C25.6211 33.3393 25.7293 33.6713 25.7456 34.0143C25.7619 34.3572 25.6857 34.6982 25.5251 35.0008C25.3645 35.3034 25.1256 35.5562 24.8339 35.7322C24.5421 35.9082 24.2085 36.0007 23.8687 36H12.1312C11.7916 36.0004 11.4583 35.9076 11.1668 35.7314C10.8753 35.5553 10.6367 35.3025 10.4763 35C10.3159 34.6974 10.2399 34.3566 10.2563 34.0138C10.2727 33.671 10.3809 33.3392 10.5694 33.0537L11.0906 32.2655H11.0887Z" fill="#616161"/>
</svg>
