<svg width="38" height="38" viewBox="0 0 38 38" fill="none" xmlns="http://www.w3.org/2000/svg">
<path d="M36.8498 31.6213L28.9099 23.6579C30.3365 21.3094 31.1598 18.5537 31.1641 15.6048C31.1667 13.7727 30.8504 12.0154 30.2721 10.3817C30.2672 10.3678 30.2629 10.3537 30.258 10.3397C30.1847 10.1349 30.1059 9.93269 30.0245 9.73185C30.01 9.69563 29.9966 9.6589 29.9819 9.62268C29.9028 9.43201 29.8185 9.24431 29.7322 9.05743C29.7122 9.01423 29.6939 8.97059 29.6736 8.92769C29.5827 8.73532 29.4865 8.54643 29.388 8.35874C29.37 8.32422 29.3535 8.28919 29.3353 8.25498C29.2202 8.03945 29.1 7.82733 28.9752 7.61826C28.9729 7.61417 28.9709 7.61009 28.9685 7.60638C27.5203 5.18099 25.4321 3.18258 22.936 1.84361C22.9314 1.84101 22.9264 1.83871 22.9215 1.83604C22.7037 1.71951 22.4826 1.60774 22.2591 1.50138C22.2548 1.49938 22.2503 1.49767 22.246 1.4956C20.2316 0.541218 17.9812 0.00350498 15.6048 1.6712e-05C6.99891 -0.012452 0.0124875 6.95378 1.87325e-05 15.5596C-0.00280157 17.3903 0.312924 19.1462 0.890567 20.7786C0.89606 20.7942 0.900735 20.8099 0.906153 20.8255C0.979184 21.0295 1.05771 21.2308 1.13875 21.431C1.15352 21.4678 1.16718 21.5051 1.18225 21.542C1.26047 21.7308 1.34419 21.9168 1.42939 22.1016C1.45032 22.1468 1.4694 22.1929 1.49085 22.2378C1.58154 22.4293 1.67743 22.6179 1.77533 22.8047C1.79358 22.8395 1.81036 22.8751 1.82891 22.9096C1.94425 23.1254 2.06471 23.3384 2.18954 23.5481C2.19154 23.5513 2.19333 23.5548 2.19533 23.558C3.64326 25.983 5.73118 27.9814 8.22693 29.3204C8.2339 29.3242 8.2414 29.3277 8.24837 29.3315C8.4642 29.4468 8.68292 29.5574 8.90424 29.6629C8.91033 29.6655 8.91642 29.6681 8.9222 29.671C10.9353 30.6242 13.1843 31.161 15.5593 31.1645C18.5067 31.1688 21.2639 30.3536 23.6162 28.9355L31.5569 36.8991C32.285 37.6294 33.2445 37.9986 34.1978 38C35.1576 38.0011 36.1119 37.635 36.8422 36.9067C38.3091 35.4502 38.3125 33.082 36.8498 31.6213ZM25.8121 15.5973C25.8037 21.2377 21.2079 25.8206 15.5671 25.8122C9.92638 25.804 5.34383 21.208 5.35229 15.5675C5.36038 9.92705 9.95622 5.3439 15.597 5.35207C21.2378 5.36038 25.8203 9.95674 25.8121 15.5973Z" fill="#808080"/>
<path d="M21.1875 9.99348C20.7824 9.58735 20.3366 9.21849 19.863 8.89727C19.3844 8.57227 18.8725 8.29328 18.3414 8.06728C17.8159 7.84396 17.2661 7.67274 16.7081 7.55421C16.6939 7.55109 16.6798 7.54612 16.6655 7.54293V7.54323C16.6635 7.54263 16.6618 7.54204 16.6597 7.54182L16.2993 9.28462C16.7593 9.37962 17.2118 9.5213 17.645 9.70551C18.0699 9.88631 18.4799 10.11 18.8637 10.3701C19.2439 10.6282 19.6016 10.9246 19.9267 11.2504C20.252 11.5763 20.547 11.9347 20.8039 12.3163C21.0632 12.7007 21.2857 13.1112 21.465 13.5368C21.6478 13.9702 21.788 14.423 21.8819 14.8836L23.6161 14.5305L23.6204 14.5296L23.6262 14.5285C23.5088 13.9528 23.3336 13.3865 23.1047 12.845C22.8807 12.3138 22.6032 11.8012 22.2799 11.3212C21.9595 10.8461 21.5921 10.3997 21.1875 9.99348Z" fill="#808080"/>
</svg>
