<svg width="14" height="14" viewBox="0 0 14 14" fill="none" xmlns="http://www.w3.org/2000/svg">
<path d="M13.5763 11.6499L10.651 8.71608C11.1766 7.85082 11.4799 6.83557 11.4815 5.74913C11.4825 5.07415 11.3659 4.42673 11.1529 3.82484C11.1511 3.81973 11.1495 3.8145 11.1477 3.80936C11.1207 3.7339 11.0916 3.65941 11.0616 3.58542C11.0563 3.57208 11.0514 3.55854 11.046 3.5452C11.0168 3.47495 10.9858 3.4058 10.954 3.33695C10.9466 3.32103 10.9399 3.30496 10.9324 3.28915C10.8989 3.21828 10.8634 3.14869 10.8272 3.07953C10.8205 3.06682 10.8144 3.05391 10.8077 3.04131C10.7654 2.9619 10.7211 2.88375 10.6751 2.80673C10.6742 2.80522 10.6735 2.80372 10.6726 2.80235C10.139 1.90879 9.36973 1.17253 8.45011 0.679223C8.44841 0.678266 8.44658 0.677419 8.44478 0.676434C8.36452 0.633505 8.28307 0.592325 8.20071 0.553142C8.19912 0.552403 8.19748 0.551774 8.19589 0.551009C7.45376 0.199396 6.62464 0.00129131 5.74913 6.15707e-06C2.57854 -0.00458758 0.00460064 2.56192 6.90144e-06 5.7325C-0.00103216 6.40696 0.115288 7.05386 0.328104 7.65528C0.330127 7.66102 0.33185 7.66682 0.333846 7.67256C0.360752 7.7477 0.389682 7.82189 0.419541 7.89563C0.424982 7.90919 0.430014 7.92295 0.435564 7.93651C0.464385 8.0061 0.495228 8.0746 0.526619 8.14271C0.53433 8.15936 0.541357 8.17634 0.54926 8.19286C0.582673 8.26343 0.618002 8.33291 0.654068 8.40174C0.660794 8.41456 0.666974 8.42768 0.67381 8.44037C0.716302 8.51989 0.760681 8.59836 0.806673 8.67561C0.807411 8.67679 0.808068 8.67807 0.808806 8.67925C1.34225 9.5727 2.11149 10.3089 3.03097 10.8023C3.03354 10.8037 3.0363 10.8049 3.03887 10.8063C3.11839 10.8488 3.19897 10.8896 3.28051 10.9284C3.28275 10.9294 3.285 10.9303 3.28713 10.9314C4.0288 11.2826 4.85737 11.4804 5.73237 11.4816C6.81826 11.4832 7.83406 11.1829 8.70071 10.6605L11.6262 13.5944C11.8945 13.8635 12.248 13.9995 12.5992 14C12.9528 14.0004 13.3044 13.8655 13.5734 13.5972C14.1139 13.0606 14.1151 12.1881 13.5763 11.6499ZM9.50973 5.74636C9.50664 7.82443 7.81344 9.51285 5.73526 9.50976C3.65709 9.50675 1.96878 7.81346 1.9719 5.7354C1.97488 3.65733 3.66808 1.96881 5.74626 1.97181C7.82446 1.97488 9.51274 3.66827 9.50973 5.74636Z" fill="#616161"/>
<path d="M7.80591 3.68181C7.65667 3.53218 7.49242 3.39629 7.31794 3.27794C7.1416 3.1582 6.95301 3.05542 6.75737 2.97216C6.56375 2.88988 6.36118 2.8268 6.15561 2.78313C6.15039 2.78198 6.14517 2.78015 6.13992 2.77897V2.77908C6.13918 2.77887 6.13855 2.77865 6.13779 2.77856L6.005 3.42065C6.17448 3.45565 6.3412 3.50785 6.50077 3.57572C6.65734 3.64232 6.80839 3.72474 6.94978 3.82055C7.08984 3.91565 7.22163 4.02483 7.3414 4.1449C7.46128 4.26497 7.56994 4.39701 7.66458 4.53758C7.76011 4.6792 7.84209 4.83043 7.90815 4.98725C7.9755 5.14691 8.02715 5.31373 8.06174 5.48343L8.70065 5.35333L8.70224 5.35303L8.70437 5.35259C8.66114 5.14051 8.59659 4.93185 8.51226 4.73238C8.42973 4.53665 8.3275 4.34782 8.20839 4.17099C8.09034 3.99593 7.95499 3.83146 7.80591 3.68181Z" fill="#616161"/>
</svg>
