<svg width="30" height="30" viewBox="0 0 30 30" fill="none" xmlns="http://www.w3.org/2000/svg">
<path d="M29.092 24.9642L22.8236 18.6773C23.9499 16.8232 24.5998 14.6477 24.6032 12.3196C24.6053 10.8732 24.3556 9.48585 23.8991 8.19609C23.8952 8.18513 23.8917 8.17394 23.8879 8.16292C23.83 8.00121 23.7678 7.8416 23.7035 7.68304C23.6921 7.65445 23.6816 7.62544 23.6699 7.59685C23.6074 7.44632 23.5409 7.29814 23.4728 7.1506C23.457 7.1165 23.4426 7.08205 23.4266 7.04818C23.3547 6.89631 23.2788 6.74719 23.201 6.599C23.1869 6.57176 23.1738 6.5441 23.1594 6.51709C23.0686 6.34693 22.9737 6.17947 22.8751 6.01441C22.8733 6.01119 22.8717 6.00797 22.8699 6.00504C21.7265 4.09026 20.078 2.51257 18.1074 1.45548C18.1037 1.45343 18.0998 1.45161 18.0959 1.4495C17.924 1.35751 17.7494 1.26927 17.5729 1.1853C17.5695 1.18372 17.566 1.18237 17.5626 1.18073C15.9723 0.427278 14.1957 0.00276709 12.3196 1.31937e-05C5.52545 -0.00983053 0.00985852 5.48982 1.47888e-05 12.2839C-0.00221177 13.7292 0.247045 15.1154 0.70308 16.4042C0.707415 16.4165 0.711107 16.4289 0.715384 16.4412C0.77304 16.6022 0.835032 16.7612 0.899017 16.9192C0.910677 16.9483 0.921458 16.9777 0.933352 17.0068C0.99511 17.1559 1.0612 17.3027 1.12847 17.4487C1.14499 17.4843 1.16005 17.5207 1.17698 17.5561C1.24859 17.7074 1.32429 17.8562 1.40157 18.0037C1.41599 18.0312 1.42923 18.0593 1.44388 18.0865C1.53493 18.2569 1.63003 18.4251 1.72859 18.5906C1.73017 18.5931 1.73157 18.5959 1.73316 18.5984C2.87626 20.5129 4.52461 22.0906 6.49494 23.1477C6.50045 23.1507 6.50637 23.1535 6.51187 23.1564C6.68226 23.2474 6.85494 23.3348 7.02967 23.4181C7.03447 23.4201 7.03928 23.4222 7.04385 23.4245C8.63314 24.177 10.4086 24.6008 12.2836 24.6035C14.6106 24.6069 16.7873 23.9633 18.6444 22.8438L24.9134 29.1309C25.4881 29.7074 26.2456 29.9989 26.9983 30C27.756 30.0009 28.5094 29.7118 29.0859 29.1369C30.244 27.987 30.2467 26.1174 29.092 24.9642ZM20.378 12.3136C20.3714 16.7666 16.7431 20.3847 12.2898 20.3781C7.83662 20.3716 4.21881 16.7431 4.22549 12.2901C4.23188 7.83714 7.86017 4.21887 12.3134 4.22532C16.7667 4.23188 20.3844 7.86058 20.378 12.3136Z" fill="#616161"/>
<path d="M16.727 7.88914C16.4072 7.56851 16.0552 7.2773 15.6814 7.02371C15.3035 6.76713 14.8994 6.54687 14.4801 6.36846C14.0652 6.19215 13.6312 6.05697 13.1907 5.9634C13.1795 5.96094 13.1683 5.95701 13.157 5.95449V5.95473C13.1554 5.95426 13.1541 5.95379 13.1525 5.95361L12.8679 7.32951C13.2311 7.40451 13.5883 7.51636 13.9303 7.66179C14.2658 7.80453 14.5895 7.98113 14.8924 8.18644C15.1926 8.39023 15.475 8.62419 15.7316 8.88148C15.9885 9.13876 16.2213 9.42171 16.4241 9.72294C16.6289 10.0264 16.8045 10.3505 16.9461 10.6865C17.0904 11.0286 17.2011 11.3861 17.2752 11.7498L18.6443 11.471L18.6477 11.4703L18.6523 11.4694C18.5596 11.0149 18.4213 10.5678 18.2406 10.1404C18.0638 9.72095 17.8447 9.3163 17.5895 8.93738C17.3365 8.56226 17.0465 8.20982 16.727 7.88914Z" fill="#616161"/>
</svg>
