<svg width="36" height="36" viewBox="0 0 36 36" fill="none" xmlns="http://www.w3.org/2000/svg">
<path d="M30.2356 24.7792C31.0988 23.9102 30.9962 19.3508 30.9962 19.3508C30.9962 16.5673 30.1668 6.33397 28.9922 4.10594C27.8163 1.87916 21.2488 0 18.0001 0C14.7513 0 8.18133 1.87916 7.00793 4.10594C5.83329 6.33523 5.0039 16.5648 5.0039 19.3483C5.0039 19.3483 4.90008 23.9076 5.76323 24.7792C6.33242 25.3523 8.52159 26.7692 10.3455 27.8309L5.66191 35.9987H8.55161L9.3935 34.5314H26.6041L27.446 36H30.3382L25.6546 27.8322C27.4785 26.7717 29.6677 25.3535 30.2369 24.7805L30.2356 24.7792ZM27.7838 19.0019C27.5716 19.0027 27.3639 18.94 27.1871 18.8219C27.0103 18.7037 26.8724 18.5354 26.7906 18.3382C26.7089 18.1411 26.6872 17.9239 26.7281 17.7143C26.769 17.5047 26.8708 17.312 27.0206 17.1606C27.1704 17.0093 27.3614 16.9061 27.5695 16.8642C27.7775 16.8222 27.9933 16.8434 28.1894 16.925C28.3855 17.0065 28.5532 17.1449 28.6711 17.3225C28.7891 17.5001 28.8521 17.7089 28.8521 17.9225C28.8521 18.0641 28.8244 18.2042 28.7705 18.3349C28.7167 18.4657 28.6378 18.5844 28.5384 18.6844C28.4389 18.7845 28.3209 18.8638 28.191 18.9178C28.061 18.9718 27.9218 18.9996 27.7813 18.9994L27.7838 19.0019ZM23.5305 6.61358H28.2466C28.6532 8.58342 29.016 11.6264 29.2549 14.338H23.533V6.61484L23.5305 6.61358ZM16.0211 1.78344H19.9816V3.46234H16.0211V1.7847V1.78344ZM7.7585 6.61484H12.4721V14.3393H6.74898C6.98667 11.6264 7.34944 8.58342 7.7585 6.61358V6.61484ZM8.22136 19.0019C8.07493 19.0122 7.92797 18.992 7.7896 18.9427C7.65123 18.8934 7.52441 18.816 7.41701 18.7152C7.30962 18.6145 7.22394 18.4926 7.1653 18.3571C7.10666 18.2216 7.07632 18.0755 7.07614 17.9277C7.07597 17.7799 7.10598 17.6336 7.1643 17.498C7.22263 17.3624 7.30802 17.2403 7.41518 17.1393C7.52234 17.0383 7.64898 16.9606 7.78723 16.9109C7.92549 16.8613 8.0724 16.8408 8.21886 16.8507C8.48643 16.873 8.73593 16.9957 8.9179 17.1945C9.09988 17.3932 9.20104 17.6536 9.20136 17.9239C9.20167 18.1942 9.10111 18.4548 8.9196 18.654C8.73809 18.8532 8.48888 18.9765 8.22136 18.9994V19.0019ZM9.67246 17.9225C9.67238 17.7809 9.70001 17.6406 9.75378 17.5097C9.80755 17.3788 9.8864 17.2598 9.98584 17.1596C10.0853 17.0593 10.2033 16.9798 10.3333 16.9255C10.4633 16.8712 10.6026 16.8432 10.7433 16.8432C10.884 16.8431 11.0233 16.8709 11.1533 16.925C11.2834 16.9792 11.4015 17.0586 11.5011 17.1587C11.6006 17.2588 11.6796 17.3777 11.7335 17.5085C11.7875 17.6394 11.8153 17.7796 11.8153 17.9213C11.8155 18.2076 11.7027 18.4822 11.5018 18.6847C11.3009 18.8872 11.0282 19.0011 10.7439 19.0013C10.6031 19.0014 10.4637 18.9735 10.3336 18.9194C10.2035 18.8652 10.0853 18.7858 9.98566 18.6856C9.78449 18.4833 9.67138 18.2088 9.67121 17.9225H9.67246ZM10.8396 32.0125L12.078 29.8524H23.9246L25.163 32.0125H10.8396ZM24.1873 17.9225C24.1787 17.7757 24.2001 17.6286 24.25 17.4903C24.3 17.3521 24.3775 17.2256 24.4778 17.1186C24.5781 17.0115 24.699 16.9263 24.8332 16.8681C24.9674 16.8099 25.112 16.7799 25.2581 16.78C25.4043 16.78 25.5488 16.8102 25.6829 16.8686C25.8171 16.927 25.9379 17.0123 26.0381 17.1195C26.1383 17.2266 26.2156 17.3532 26.2654 17.4915C26.3152 17.6298 26.3364 17.7769 26.3277 17.9238C26.309 18.1967 26.1881 18.4522 25.9894 18.6388C25.7908 18.8253 25.5292 18.929 25.2575 18.9289C24.9859 18.9287 24.7244 18.8247 24.5259 18.6379C24.3275 18.4511 24.2069 18.1954 24.1885 17.9225H24.1873Z" fill="#616161"/>
</svg>
