<svg width="14" height="14" viewBox="0 0 14 14" fill="none" xmlns="http://www.w3.org/2000/svg">
<path d="M12.9413 5.39342V1.52211C12.9413 1.32462 12.7816 1.16675 12.5847 1.16675H1.41313C1.21839 1.16675 1.0587 1.32462 1.0587 1.52211V5.39342C0.411225 5.93738 0 6.75552 0 7.67016V8.26457V8.81945V12.6514C0 12.7522 0.0808559 12.8334 0.179321 12.8334H1.57055C1.66904 12.8334 1.74998 12.7522 1.74998 12.6514V10.9515C1.74998 10.8527 1.83084 10.7717 1.9293 10.7717H12.0706C12.1691 10.7717 12.25 10.8528 12.25 10.9515V12.6514C12.25 12.7522 12.3309 12.8334 12.4293 12.8334H13.8206C13.9191 12.8334 14 12.7522 14 12.6514V8.81942V8.26457V7.67016C14.0001 6.75552 13.5887 5.93738 12.9413 5.39342ZM1.12099 6.68388C1.47282 6.02295 2.16722 5.57325 2.96629 5.57325H11.0338C11.8311 5.57325 12.5262 6.02284 12.8785 6.68366C13.0482 7.00175 12.82 7.38722 12.4603 7.38722H1.53949C1.17986 7.38722 0.951705 7.00195 1.12099 6.68388ZM11.1432 4.47655C11.1257 4.52925 11.0775 4.56654 11.0228 4.57306C9.68841 4.71999 8.97747 4.71999 7.64314 4.57306C7.58845 4.56654 7.54027 4.52925 7.52502 4.47655C7.27786 3.75493 7.27786 3.35578 7.52502 2.63188C7.54027 2.58143 7.58845 2.54417 7.64314 2.53762C8.97747 2.39069 9.68841 2.39069 11.0228 2.53762C11.0775 2.54414 11.1257 2.58143 11.1432 2.63188C11.3882 3.35576 11.3882 3.75493 11.1432 4.47655ZM6.47496 4.47655C6.45754 4.52925 6.41163 4.56654 6.35694 4.57306C5.02253 4.71999 4.31159 4.71999 2.97718 4.57306C2.92249 4.56654 2.87431 4.52925 2.85692 4.47655C2.61186 3.75493 2.61186 3.35578 2.85692 2.63188C2.87431 2.58143 2.92249 2.54417 2.97718 2.53762C4.31159 2.39069 5.02253 2.39069 6.35694 2.53762C6.41163 2.54414 6.45754 2.58143 6.47496 2.63188C6.72223 3.35576 6.72223 3.75493 6.47496 4.47655Z" fill="#616161"/>
</svg>
