<svg width="14" height="14" viewBox="0 0 14 14" fill="none" xmlns="http://www.w3.org/2000/svg">
<path fill-rule="evenodd" clip-rule="evenodd" d="M7 0C3.13409 0 0 3.13409 0 7C0 10.8659 3.13409 14 7 14C10.8659 14 14 10.8659 14 7C14 3.13409 10.8659 0 7 0ZM10.0342 5.81636C10.0901 5.7525 10.1326 5.67811 10.1593 5.59756C10.186 5.51702 10.1963 5.43195 10.1896 5.34735C10.183 5.26276 10.1594 5.18036 10.1205 5.10499C10.0815 5.02962 10.0278 4.96281 9.96262 4.90849C9.89744 4.85417 9.82205 4.81343 9.74088 4.78868C9.65972 4.76392 9.57443 4.75565 9.49002 4.76435C9.40561 4.77304 9.3238 4.79853 9.24938 4.83931C9.17497 4.8801 9.10947 4.93535 9.05673 5.00182L6.32036 8.28482L4.90446 6.86827C4.78444 6.75236 4.62369 6.68821 4.45684 6.68966C4.28998 6.69111 4.13038 6.75804 4.01239 6.87603C3.8944 6.99401 3.82748 7.15362 3.82603 7.32047C3.82458 7.48733 3.88872 7.64807 4.00464 7.76809L5.91373 9.67718C5.97626 9.73967 6.05112 9.78845 6.13354 9.8204C6.21596 9.85236 6.30414 9.86679 6.39245 9.86278C6.48075 9.85877 6.56726 9.8364 6.64644 9.79711C6.72563 9.75781 6.79576 9.70245 6.85236 9.63455L10.0342 5.81636Z" fill="#616161"/>
</svg>
