<svg width="14" height="14" viewBox="0 0 14 14" fill="none" xmlns="http://www.w3.org/2000/svg">
<path d="M7.84408 12.1946C7.94068 12.1472 8.02209 12.0738 8.07909 11.9825C8.1361 11.8913 8.16644 11.7859 8.16667 11.6783V8.57501C8.16667 8.42218 8.22792 8.27518 8.33758 8.16668L11.9082 4.63518C12.1269 4.41876 12.25 4.12476 12.25 3.81851V2.32751C12.2497 2.25127 12.2344 2.17583 12.2049 2.10552C12.1754 2.03522 12.1323 1.97142 12.0781 1.91777C12.0239 1.86413 11.9597 1.8217 11.8891 1.79292C11.8185 1.76413 11.7429 1.74955 11.6667 1.75001H2.33333C2.01075 1.75001 1.75 2.00784 1.75 2.32751V3.81851C1.75 4.12476 1.87308 4.41876 2.09183 4.63518L5.66242 8.16668C5.71652 8.22004 5.75948 8.28361 5.78882 8.3537C5.81816 8.4238 5.83329 8.49902 5.83333 8.57501V12.2558C5.83333 12.6846 6.2895 12.9634 6.67742 12.7715L7.84408 12.1946Z" fill="#616161"/>
</svg>
