<svg width="32" height="32" viewBox="0 0 32 32" fill="none" xmlns="http://www.w3.org/2000/svg">
<path d="M26.716 6.63247L26.7156 6.63208C26.0055 5.936 25.1683 5.38283 24.2495 5.00266L24.2488 5.00239C23.2958 4.60652 22.2737 4.4039 21.2418 4.40627L21.2406 4.40627C19.7915 4.40627 18.3785 4.80305 17.151 5.55186L17.151 5.55187C16.8573 5.73101 16.5787 5.92754 16.315 6.14147L16 6.39694L15.685 6.14147C15.4213 5.92754 15.1427 5.73101 14.849 5.55187L14.849 5.55186C13.6215 4.80305 12.2085 4.40627 10.7594 4.40627C9.71495 4.40627 8.70521 4.60611 7.75118 5.0024L7.75064 5.00262C6.82854 5.38438 5.99798 5.93317 5.28423 6.63223L5.28355 6.6329C4.57412 7.32509 4.00741 8.14976 3.61553 9.06017L26.716 6.63247ZM26.716 6.63247C27.4247 7.32564 27.9915 8.15033 28.3846 9.06039C28.7921 10.0075 28.9998 11.0115 28.9969 12.0455V12.0469C28.9969 13.0191 28.7984 14.043 28.3955 15.0964L28.3951 15.0976M26.716 6.63247L28.3951 15.0976M9.16417 22.4889L9.16422 22.4889C10.5969 23.812 12.0246 24.9322 13.1101 25.7314C13.6525 26.1306 14.1085 26.4491 14.4356 26.6718C14.5992 26.7832 14.7305 26.8706 14.8241 26.9321C14.8709 26.9628 14.9081 26.987 14.9352 27.0045L14.9676 27.0252L14.9772 27.0313L14.9799 27.033L14.9808 27.0336L14.9887 27.0384L14.9887 27.0385L15.7283 27.5129C15.7285 27.513 15.7287 27.5131 15.7288 27.5132C15.8927 27.6175 16.1042 27.6175 16.268 27.5132C16.2682 27.5131 16.2684 27.513 16.2685 27.5129L17.0082 27.0385L17.0083 27.0385C17.1203 26.9667 19.961 25.138 22.8328 22.4888C24.5621 20.8923 25.9431 19.3279 26.9408 17.8405L9.16417 22.4889ZM9.16417 22.4889C7.43482 20.8923 6.05379 19.3279 5.05603 17.8405C4.42655 16.9008 3.93904 15.9778 3.60139 15.0964C3.19851 14.043 3 13.0191 3 12.0469C3 11.0119 3.20794 10.0073 3.61551 9.0602L9.16417 22.4889ZM28.3951 15.0976C28.0611 15.9772 27.5711 16.8997 26.941 17.8402L28.3951 15.0976Z" fill="#FEFEFE" stroke="#28DAA5"/>
</svg>
