<svg width="14" height="14" viewBox="0 0 14 14" fill="none" xmlns="http://www.w3.org/2000/svg">
<path d="M11.0833 9.91667H2.91667C2.27325 9.91667 1.75 10.4399 1.75 11.0833C1.75 11.7267 2.27325 12.25 2.91667 12.25H11.0833C11.7267 12.25 12.25 11.7267 12.25 11.0833C12.25 10.4399 11.7267 9.91667 11.0833 9.91667ZM11.0833 5.83333H2.91667C2.27325 5.83333 1.75 6.35658 1.75 7C1.75 7.64342 2.27325 8.16667 2.91667 8.16667H11.0833C11.7267 8.16667 12.25 7.64342 12.25 7C12.25 6.35658 11.7267 5.83333 11.0833 5.83333ZM11.0833 1.75H2.91667C2.27325 1.75 1.75 2.27325 1.75 2.91667C1.75 3.56008 2.27325 4.08333 2.91667 4.08333H11.0833C11.7267 4.08333 12.25 3.56008 12.25 2.91667C12.25 2.27325 11.7267 1.75 11.0833 1.75Z" fill="#616161"/>
</svg>
