<svg width="14" height="14" viewBox="0 0 14 14" fill="none" xmlns="http://www.w3.org/2000/svg">
<path d="M13.125 1.49363L12.5064 0.875L0.875 12.5064L1.49363 13.125L2.36863 12.25H11.375C11.607 12.2497 11.8293 12.1574 11.9933 11.9933C12.1574 11.8293 12.2497 11.607 12.25 11.375V2.36863L13.125 1.49363ZM11.375 11.375H3.24362L6.65306 7.96556L7.69388 9.00638C7.85796 9.17041 8.08048 9.26256 8.3125 9.26256C8.54452 9.26256 8.76704 9.17041 8.93112 9.00638L9.625 8.3125L11.375 10.0612V11.375ZM11.375 8.8235L10.2436 7.69213C10.0795 7.52809 9.85702 7.43594 9.625 7.43594C9.39298 7.43594 9.17046 7.52809 9.00638 7.69213L8.3125 8.386L7.27256 7.34606L11.375 3.24362V8.8235Z" fill="#616161"/>
<path d="M2.625 9.625V8.3125L4.8125 6.12631L5.41319 6.72744L6.03269 6.10794L5.43112 5.50638C5.26704 5.34234 5.04452 5.25019 4.8125 5.25019C4.58048 5.25019 4.35796 5.34234 4.19388 5.50638L2.625 7.07525V2.625H9.625V1.75H2.625C2.39301 1.75023 2.17058 1.84249 2.00654 2.00654C1.84249 2.17058 1.75023 2.39301 1.75 2.625V9.625H2.625Z" fill="#616161"/>
</svg>
