<svg width="14" height="14" viewBox="0 0 14 14" fill="none" xmlns="http://www.w3.org/2000/svg">
<path d="M12.1078 3.14727L10.6518 1.69258C10.549 1.58942 10.427 1.50756 10.2925 1.45172C10.1581 1.39588 10.0139 1.36715 9.86836 1.36719C9.57168 1.36719 9.29277 1.4834 9.08359 1.69258L7.5168 3.25937C7.41363 3.36209 7.33178 3.48417 7.27594 3.61861C7.2201 3.75305 7.19137 3.8972 7.19141 4.04277C7.19141 4.33945 7.30762 4.61836 7.5168 4.82754L8.6625 5.97324C8.39432 6.56436 8.02146 7.10211 7.56191 7.56055C7.10353 8.02121 6.56582 8.39542 5.97461 8.66523L4.82891 7.51953C4.7262 7.41637 4.60411 7.33452 4.46967 7.27867C4.33523 7.22283 4.19108 7.19411 4.04551 7.19414C3.74883 7.19414 3.46992 7.31035 3.26074 7.51953L1.69258 9.08496C1.58929 9.18786 1.50737 9.31017 1.45152 9.44485C1.39568 9.57953 1.36702 9.72393 1.36719 9.86973C1.36719 10.1664 1.4834 10.4453 1.69258 10.6545L3.1459 12.1078C3.47949 12.4428 3.94024 12.6328 4.41328 12.6328C4.51309 12.6328 4.60879 12.6246 4.70313 12.6082C6.54609 12.3047 8.37402 11.3244 9.84922 9.85059C11.323 8.37813 12.302 6.55156 12.6096 4.70312C12.7025 4.13848 12.5152 3.55742 12.1078 3.14727Z" fill="#616161"/>
</svg>
