<svg width="14" height="14" viewBox="0 0 14 14" fill="none" xmlns="http://www.w3.org/2000/svg">
<path d="M6.99996 9.91675L7.58329 8.75008V5.75058C8.58721 5.48983 9.33329 4.58391 9.33329 3.50008C9.33329 2.21325 8.28679 1.16675 6.99996 1.16675C5.71313 1.16675 4.66663 2.21325 4.66663 3.50008C4.66663 4.58391 5.41271 5.48983 6.41663 5.75058V8.75008L6.99996 9.91675Z" fill="#616161"/>
<path d="M9.48904 6.16172L9.17813 7.28638C10.6895 7.70405 11.6666 8.5073 11.6666 9.3333C11.6666 10.437 9.75038 11.6666 6.99996 11.6666C4.24954 11.6666 2.33329 10.437 2.33329 9.3333C2.33329 8.5073 3.31038 7.70405 4.82238 7.2858L4.51146 6.16113C2.44821 6.73163 1.16663 7.94672 1.16663 9.3333C1.16663 11.2956 3.72921 12.8333 6.99996 12.8333C10.2707 12.8333 12.8333 11.2956 12.8333 9.3333C12.8333 7.94672 11.5517 6.73163 9.48904 6.16172Z" fill="#616161"/>
</svg>
